<?xml version="1.0" encoding="iso-8859-1"?>
<!-- Uploaded to: SVG Repo, www.svgrepo.com, Generator: SVG Repo Mixer Tools -->
<svg height="800px" width="800px" version="1.1" id="Layer_1" xmlns="http://www.w3.org/2000/svg" xmlns:xlink="http://www.w3.org/1999/xlink" 
	 viewBox="0 0 512.003 512.003" xml:space="preserve">
<path style="fill:#E0E0E3;" d="M59.074,472.615V196.927C59.074,88.167,147.242,0,256,0h0.003
	c108.76,0,196.927,88.167,196.927,196.927v273.116v1.259c0,18.328-11.934,35.343-29.771,39.562
	c-25.596,6.056-48.422-12.877-48.989-37.314c-0.456-19.688-14.642-37.471-34.172-39.98c-23.321-2.999-43.312,14.423-44.549,36.844
	c-1.111,20.14-14.226,38.687-34.232,41.255c-23.317,2.992-43.301-14.429-44.538-36.848c-1.111-20.14-14.226-38.685-34.232-41.254
	c-23.394-3.002-43.434,14.541-44.55,37.065c-0.979,19.716-13.674,37.891-33.186,40.89C80.188,515.287,59.074,496.417,59.074,472.615
	z"/>
<g>
	<path style="fill:#C7C5CC;" d="M279.849,433.567c-23.321-2.999-43.312,14.423-44.549,36.844c-0.55,9.982-4.053,19.569-9.877,27.016
		c8.224,10.124,21.368,16.09,35.792,14.239c20.007-2.568,33.121-21.115,34.232-41.255c0.479-8.675,3.774-16.594,8.974-22.879
		C298.354,440.092,289.799,434.845,279.849,433.567z"/>
	<path style="fill:#C7C5CC;" d="M122.299,433.565c-23.394-3.002-43.434,14.541-44.55,37.065c-0.493,9.939-3.967,19.484-9.787,26.892
		c8.427,10.306,21.964,16.271,36.747,13.998c19.512-2.999,32.207-21.174,33.186-40.89c0.428-8.635,3.645-16.531,8.758-22.826
		C140.725,440.223,132.391,434.86,122.299,433.565z"/>
	<path style="fill:#C7C5CC;" d="M256.002,0h-0.001c-10.225,0-20.267,0.781-30.072,2.283
		c94.485,14.478,166.854,96.109,166.854,194.644v273.116v1.259c0,9.85-3.451,19.316-9.408,26.625
		c9.094,10.828,23.903,16.693,39.783,12.937c17.837-4.219,29.771-21.233,29.771-39.562v-1.259V196.927
		C452.929,88.167,364.763,0,256.002,0z"/>
</g>
<g>
	<circle style="fill:#FFD92D;" cx="184.232" cy="216.017" r="46.386"/>
	<circle style="fill:#FFD92D;" cx="324.922" cy="216.017" r="46.387"/>
</g>
<g>
	<circle style="fill:#956EC4;" cx="342.6" cy="234.362" r="21.644"/>
	<circle style="fill:#956EC4;" cx="199.648" cy="235.068" r="21.644"/>
</g>
</svg>